<svg xmlns="http://www.w3.org/2000/svg" width="338" height="109" viewBox="0 0 338 109">
  <g id="AI_Logo" data-name="AI Logo" transform="translate(-115.927 -68.085)">
    <rect id="Rectangle_6" data-name="Rectangle 6" width="338" height="109" transform="translate(115.927 68.085)" fill="#fff"/>
    <g id="AI_Logo-2" data-name="AI Logo" transform="translate(141.282 80.224)">
      <path id="Path_63" data-name="Path 63" d="M94.271,52.169,123.64.1,109.46,0l-37.6,30.156L46.294,48.55S36.856,58.357.346,56.38c0,0,11.135,1.627,21.086,3.952A67.627,67.627,0,0,1,36.371,65.91c2.011,1.182,4.129,2.491,5.847,3.681,3.227,2.217,9.676,8.664,13.812,10.884,5.313,2.865,14.458,5.507,28.474,2.7,0,0-17.2.4-24.556-5.926-1.352-1.177-5.815-6.019,1.1-9.885,2.5-1.581,6.311-2.539,13.275-3.69,0,0,19.611-2.01,24.9-.977a14.928,14.928,0,0,1-4.943-3.375c-2.635-2.638,0-7.153,0-7.153" transform="translate(-0.346)" fill="#d9000d"/>
      <path id="Path_64" data-name="Path 64" d="M81.063,28.078c1.667-.206,8.485-1.381,9.209-1.528,3.427-.678,7.149-1.48,10.362-2.161l.378-.668c-4.75.354-10.447.79-14.628,1.153-2.787.237-4.892.433-5.592.552-.9.142-1.793.3-2.672.469a81.8,81.8,0,0,0-8.914,2.26,73.251,73.251,0,0,0,11.856-.077" transform="translate(7.444 2.684)" fill="#ef7000"/>
      <path id="Path_65" data-name="Path 65" d="M80.683,32.458c1.665.228,8.566.852,9.286.9,1.654.11,3.371.218,5.071.308l.7-1.261c-3.208-.6-6.454-1.193-9.086-1.665-2.759-.5-4.847-.85-5.543-.914-.912-.1-1.809-.175-2.7-.237a80.137,80.137,0,0,0-9.2-.131,72.848,72.848,0,0,0,11.476,3" transform="translate(7.444 3.324)" fill="#ef7000"/>
      <path id="Path_66" data-name="Path 66" d="M79.063,37c1.549.659,8.047,3.041,8.743,3.279.942.319,1.921.647,2.9.973l.794-1.417c-2.228-1.063-4.378-2.095-6.22-2.952-2.533-1.193-4.46-2.066-5.124-2.32-.857-.326-1.7-.627-2.544-.922a84.424,84.424,0,0,0-8.848-2.513A71.064,71.064,0,0,0,79.063,37" transform="translate(7.394 3.521)" fill="#ef7000"/>
      <path id="Path_67" data-name="Path 67" d="M76.323,40.97c1.325,1.044,6.994,5.026,7.6,5.435.922.617,1.86,1.248,2.813,1.876l.751-1.331.052-.079c-1.848-1.584-3.646-3.112-5.186-4.4-2.133-1.8-3.762-3.156-4.338-3.558-.739-.539-1.491-1.056-2.223-1.554a81.981,81.981,0,0,0-7.9-4.713,72.575,72.575,0,0,0,8.431,8.325" transform="translate(7.296 3.693)" fill="#ef7000"/>
      <path id="Path_68" data-name="Path 68" d="M72.647,44.111c1.016,1.344,5.454,6.662,5.93,7.208,2.1,2.407,4.43,4.985,6.491,7.278.309-.016.6-.016.9-.022-2.585-3.794-5.612-8.2-7.878-11.457-1.608-2.3-2.828-4.02-3.283-4.565-.572-.719-1.154-1.4-1.741-2.073a82.659,82.659,0,0,0-6.409-6.6,72.475,72.475,0,0,0,5.988,10.229" transform="translate(7.156 3.833)" fill="#ef7000"/>
      <path id="Path_69" data-name="Path 69" d="M68.28,46.18c.634,1.571,3.55,7.851,3.873,8.5.7,1.442,1.456,2.935,2.2,4.408.475-.037.954-.071,1.442-.107-1.06-3.012-2.143-6.032-3.031-8.485-.953-2.628-1.684-4.618-1.974-5.258-.37-.84-.761-1.652-1.155-2.449a78.368,78.368,0,0,0-4.487-8.04A73.469,73.469,0,0,0,68.28,46.18" transform="translate(6.985 3.931)" fill="#ef7000"/>
      <path id="Path_70" data-name="Path 70" d="M63.551,47.065c.216,1.672,1.388,8.487,1.542,9.2.226,1.2.478,2.422.736,3.652l.128-.018h.024l.056-.018h.017l.157-.024.019-.006h.042l.02-.008.02-.006h.023l.024-.007.024-.009h.027l.027-.006.018-.008h.023l.066-.016h.033l.033,0,.023-.006.04-.008H66.7l.1-.021h.032l.017-.006h.027l.144-.035h.02l.158-.028.155-.014c-.207-2.613-.411-5.146-.6-7.288-.23-2.787-.427-4.9-.539-5.593-.148-.9-.326-1.793-.479-2.664a79.8,79.8,0,0,0-2.253-8.925,71.787,71.787,0,0,0,.062,11.858" transform="translate(6.772 3.983)" fill="#ef7000"/>
      <path id="Path_71" data-name="Path 71" d="M59.149,46.684c-.239,1.67-.857,8.56-.9,9.284-.135,1.916-.249,3.918-.353,5.885.425-.138.883-.281,1.358-.409.589-3.116,1.164-6.24,1.617-8.8.5-2.747.847-4.833.914-5.538.089-.911.16-1.811.228-2.7a80.1,80.1,0,0,0,.137-9.2,72.389,72.389,0,0,0-3,11.47" transform="translate(6.165 3.984)" fill="#ef7000"/>
      <path id="Path_72" data-name="Path 72" d="M55.6,45.062c-.656,1.554-3.042,8.051-3.271,8.741-1.809,5.3-3.7,11.394-4.96,14.945,2.2-4.568,5.923-12.287,8.353-17.468,1.191-2.537,2.069-4.459,2.319-5.114.323-.86.632-1.712.919-2.547a77.468,77.468,0,0,0,2.51-8.859,73.027,73.027,0,0,0-5.87,10.3" transform="translate(4.973 3.932)" fill="#ef7000"/>
      <path id="Path_73" data-name="Path 73" d="M52.472,42.324c-1.046,1.329-5.024,6.99-5.443,7.587-3.109,4.653-6.514,10.059-8.65,13.154,3.31-3.839,8.906-10.337,12.588-14.708,1.808-2.134,3.152-3.771,3.565-4.345.532-.742,1.045-1.488,1.556-2.22a82.792,82.792,0,0,0,4.712-7.9,72.543,72.543,0,0,0-8.328,8.429" transform="translate(3.957 3.835)" fill="#ef7000"/>
      <path id="Path_74" data-name="Path 74" d="M40.851,46.31c-3.64,3.236-7.377,6.663-9.808,8.734,4.2-2.859,11.27-7.687,15.973-10.949,2.3-1.605,4.015-2.833,4.559-3.274.717-.584,1.4-1.161,2.083-1.748a84.252,84.252,0,0,0,6.6-6.411c-.4.157-.856.367-1.358.621L42.821,44.855h-.007v.007l-.008.013h-.013v.007l-.008.011-.009,0-.008.007-.014.007v0l-.007.008-.009.014-.013.007-.017.014h0l-.008.013-.016.012-.039.037h0l-.01.01-.061.055-.007.009a15.4,15.4,0,0,1-1.709,1.216" transform="translate(3.127 3.695)" fill="#ef7000"/>
      <path id="Path_75" data-name="Path 75" d="M77.907,20.586c1.339-1.037,6.585-5.558,7.111-6.04C89.17,10.8,93.788,6.381,96.611,3.883L94.857,5.121,91.468,7.845,68.038,26.633a75.157,75.157,0,0,0,9.869-6.048" transform="translate(7.312 0.439)" fill="#ef7000"/>
      <path id="Path_76" data-name="Path 76" d="M80.185,24.3c1.557-.628,7.838-3.541,8.487-3.857C93.7,17.975,99.352,15,102.748,13.377,97.962,15.05,89.875,17.886,84.5,19.829c-2.633.948-4.614,1.694-5.255,1.977-.839.376-1.652.768-2.458,1.152a83.673,83.673,0,0,0-8.033,4.483A71.283,71.283,0,0,0,80.185,24.3" transform="translate(7.393 1.513)" fill="#ef7000"/>
      <path id="Path_77" data-name="Path 77" d="M108.726,53l-.786,1.418h8.312s1.549.066,2.845-2.574l2.771-5.024h2.048l1.036-1.986H100.814l-1.25,2.04H101.7L97.93,54.3s-1.312,2.946,2.2,2.946l9.212-.008s.923-.167.48,1.16l-.3.73h7.735l.846-2.047s.925-1.409-1.854-1.409h-9.526s-1.169-.1-.572-1.413l3.873-7.439h3.415L110.4,52.273s-.214.783-1.67.731" transform="translate(10.667 5.073)" fill="#d9000d"/>
      <path id="Path_78" data-name="Path 78" d="M138.354,51.489c1.1-.2,2.1-1.67,2.1-1.67l1.36-3.031c.693-1.782-2.039-2-2.039-2l-11.887,0a4.673,4.673,0,0,0-3.56,1.321L122.86,48.51h7.752l.739-1.157s.3-.52.76-.466h1.466s.764.028.093,1.081l-.718,1.237a2.031,2.031,0,0,1-1.719.936l-3.177.019-.962,1.808h2c2.648-.165,1.555,1.381,1.555,1.381l-.706,1.387c-.458,1.185-2.019.96-2.019.96-1.632,0-1.045-.8-1.045-.8l.592-1.059-7.712.009-.99,1.89a1.1,1.1,0,0,0,1.041,1.718h14.359a3.093,3.093,0,0,0,2.669-1.2l1.511-2.613c.848-1.411,0-2.147,0-2.147Z" transform="translate(13.031 5.066)" fill="#d9000d"/>
      <path id="Path_79" data-name="Path 79" d="M154.323,44.853H142.806l-1,1.883h1.632l-1.752,3.155a1.239,1.239,0,0,1-.842.259h-2.009l-.955,1.808h1.456c.993,0,1.051.163.926.48l-2.9,5.325h7.811L151.1,46.736h2.056Z" transform="translate(15.155 5.074)" fill="#d9000d"/>
      <path id="Path_80" data-name="Path 80" d="M168.748,44.853h-11.51l-1.006,1.883h1.626l-1.793,2.69a2.535,2.535,0,0,1-1.918.724h-2.558l-.947,1.808h.8c1.017-.055.833.306.518.846l-1.126,2.036c-.332.531-.736,2.571,1.187,2.686l9.1-.01.79-1.715c-.833-.017-2.151-.017-2.914-.017-1,0-.509-.819-.509-.819l1.861-2.938a3.05,3.05,0,0,0,2.8-1.523l2.375-3.768h2.045Z" transform="translate(16.648 5.074)" fill="#d9000d"/>
      <path id="Path_81" data-name="Path 81" d="M191.47,42.068h-7.064l-1.239,1.915h7.064Z" transform="translate(20.337 4.759)" fill="#d9000d"/>
      <path id="Path_82" data-name="Path 82" d="M240.429,48.017l-2.211,4.171c-.257.345-.679.612-2.171.612h-7.753s-1.335-.307-.813-1.5c0,0,.091-.669,1.113-.669l6.706-.006a2.306,2.306,0,0,0,1.907-1.372l1.327-2.472h1.678s.943.046.217,1.237M226.7,44.84l-1,1.94h3.663c.919,0,1.175.5.814,1.094l-.263.525a1.862,1.862,0,0,1-1.486.525l-6.761-.029a1.682,1.682,0,0,0-1.68,1.064l-.943,1.9s-1.238,2.631,2.935,2.852h13.226s1.328-.029,1.285.693l-1.256,2.367h7.54l5.677-10.337a1.6,1.6,0,0,1,1.285-.652h2.2s.938.046.092,1.459l-5.074,9.53h7.543l5.681-10.362a1.481,1.481,0,0,1,1.295-.627h1.074l1.17-1.94Z" transform="translate(24.377 5.073)" fill="#d9000d"/>
      <path id="Path_83" data-name="Path 83" d="M191.751,46.93l1.212-2.119H174.109l-1.269,2.181h9.026s1.147-.108.791.47l-.335.528h-8.905a2.083,2.083,0,0,0-1.586.8l-1.521,2.658c-.325.688-.1,1.509,2.429,1.509h4.98s1.676-.15,1.1,1.051l-.739,1.307s-.365.788-1.054.734h-1.339s-.838.151-.415-.783l.586-1.151h-7.016l-1.258,2.2s-.955,1.014.217,1.348l-.4.745s-.486,1.051.352,1.116l4.4-.007a1.9,1.9,0,0,0,1.259-1.11l.316-.634h9.4a2.547,2.547,0,0,0,2.5-1.778L187,53.479s1.3-2.246-2.668-2.506h-5.189s-1.259.207-.685-.74a1.651,1.651,0,0,1,1.419-.574h7.852v-.011a1.689,1.689,0,0,0,1.487-.748l1.131-1.969Z" transform="translate(18.533 5.07)" fill="#d9000d"/>
      <path id="Path_84" data-name="Path 84" d="M215.435,44.244l-.543.878-13.055-.045a2.884,2.884,0,0,1,2.314-1.21h9.635c1.73,0,1.649.376,1.649.376m9.685.873-2.522.032,1.056-1.729s.136-1.368-2.9-1.31H199.226a5.949,5.949,0,0,0-4.715,3.019l-1.89-.007-1.144,2.066h1.955l-6.215,10.89h7.543L200.791,47.3h12.154s1.151-.109.783.47l-.332.528h-8.884A3.464,3.464,0,0,0,202,50.286l-.463.83s-.948,1.993,2.3,2.143h4.987s1.673-.15,1.1,1.051l-.736,1.307s-.362.788-1.051.734h-.836s-.846.151-.422-.783l.58-1.151H200.1l-1.258,2.2s-.409,1.409,1.642,1.458H214.2a2.558,2.558,0,0,0,2.516-1.779l1.364-2.515s1.3-2.246-2.674-2.506h-5.187s-1.255.207-.669-.74a1.63,1.63,0,0,1,1.4-.574h7.843l.01-.011a1.761,1.761,0,0,0,1.529-.816l1.09-1.9h2.407Z" transform="translate(20.795 4.764)" fill="#d9000d"/>
      <path id="Path_85" data-name="Path 85" d="M239.722,72.661h-2.879l4.818-5.243ZM234.4,65.1l-11,12.587h8.8l1.7-1.86h4.626l-.683,1.888h9.366L250.924,65.1Z" transform="translate(24.888 7.365)" fill="#d9000d"/>
      <path id="Path_86" data-name="Path 86" d="M219.355,65.1l-7.249,12.587h10.332l7.1-12.587Z" transform="translate(23.611 7.365)" fill="#d9000d"/>
      <path id="Path_87" data-name="Path 87" d="M158.639,65.113,151.43,77.685h10.337L168.8,65.1Z" transform="translate(16.746 7.365)" fill="#d9000d"/>
      <path id="Path_88" data-name="Path 88" d="M185.248,65.1,182.6,69.94,179.965,65.1h-9.311l-6.848,12.6h8.515l2.985-5.159,3,5.159h8.6l7.222-12.6Z" transform="translate(18.146 7.365)" fill="#d9000d"/>
      <path id="Path_89" data-name="Path 89" d="M205.319,70.22l-1.006,2.3c-.968,2.518-2.516,2.382-2.516,2.382l-1.531-.007,2.932-6,1.685.039c.99.235.435,1.291.435,1.291m8.629-5.107L195,65.1l-7.144,12.587h20.789s3.217.275,4.9-3.487l3.344-6.288s2.236-2.8-2.935-2.8" transform="translate(20.867 7.364)" fill="#d9000d"/>
      <path id="Path_90" data-name="Path 90" d="M102.069,72.661H99.2l4.82-5.243Zm-5.435-7.574L85.811,77.694h8.814l1.646-1.869h4.613l-.673,1.869h9.324l3.788-12.607Z" transform="translate(9.323 7.363)" fill="#d9000d"/>
      <path id="Path_91" data-name="Path 91" d="M115.916,65.129,108.8,77.682H119.13L126.2,65.129Z" transform="translate(11.923 7.368)" fill="#d9000d"/>
      <path id="Path_92" data-name="Path 92" d="M138.675,70.034l-.574.9s-.519.891-3.3.512l1.266-2.559h2.09a.722.722,0,0,1,.52,1.147m9.142-4.916H128.267l-7.13,12.573h10.272l2.346-4.426,2.892,4.426h10.266l-3.108-3.551a3.632,3.632,0,0,0,3.212-1.783l2.234-4.136c1.2-2.723-1.435-3.1-1.435-3.1" transform="translate(13.319 7.367)" fill="#d9000d"/>
    </g>
  </g>
</svg>
